<svg width="13" height="8" viewBox="0 0 13 8" fill="none" xmlns="http://www.w3.org/2000/svg">
<path d="M12.4999 6.99629C12.4347 7.14013 12.3917 7.30066 12.2997 7.42462C11.907 7.95236 11.2154 7.98328 10.7321 7.50194C9.80832 6.58147 8.88616 5.65961 7.96564 4.73635L6.59909 3.37013C6.56915 3.34043 6.53798 3.3122 6.47638 3.25304C6.44791 3.29821 6.42901 3.34411 6.39661 3.37577C5.02777 4.74658 3.65869 6.11657 2.28936 7.48574C2.02454 7.75108 1.71677 7.89173 1.3398 7.82374C0.9557 7.75427 0.688428 7.52722 0.56105 7.161C0.421156 6.75746 0.527672 6.40007 0.819241 6.09693C0.981715 5.92806 1.15008 5.76507 1.3155 5.59939C2.73195 4.18325 4.14767 2.76663 5.56265 1.34951C5.78795 1.12344 6.01522 0.910383 6.33746 0.834045L6.6656 0.834045C6.9881 0.90891 7.21512 1.12246 7.44018 1.34951C8.94711 2.86203 10.4568 4.37168 11.9693 5.87847C12.2005 6.10871 12.4224 6.33895 12.4999 6.66934L12.4999 6.99629Z" fill="black"/>
</svg>
