<svg width="20" height="20" viewBox="0 0 20 20" fill="none" xmlns="http://www.w3.org/2000/svg">
<path d="M1 5.47852V2.47852C1 2.2133 1.10536 1.95895 1.29289 1.77141C1.48043 1.58387 1.73478 1.47852 2 1.47852H18C18.2652 1.47852 18.5196 1.58387 18.7071 1.77141C18.8946 1.95895 19 2.2133 19 2.47852V5.47852M1 5.47852L7.65 11.1785C7.75977 11.2724 7.84789 11.389 7.90831 11.5201C7.96873 11.6513 8.00001 11.7941 8 11.9385V18.1985C8.00004 18.3504 8.03469 18.5003 8.10131 18.6368C8.16792 18.7733 8.26477 18.8929 8.38448 18.9864C8.50419 19.0799 8.64363 19.1449 8.79222 19.1764C8.9408 19.208 9.09462 19.2053 9.242 19.1685L11.242 18.6685C11.4584 18.6145 11.6506 18.4897 11.788 18.314C11.9253 18.1382 11.9999 17.9216 12 17.6985V11.9385C12 11.7941 12.0313 11.6513 12.0917 11.5201C12.1521 11.389 12.2402 11.2724 12.35 11.1785L19 5.47852M1 5.47852H19" stroke="black" stroke-width="1.5" stroke-linecap="round" stroke-linejoin="round"/>
</svg>
