<svg width="20" height="21" viewBox="0 0 20 21" fill="none" xmlns="http://www.w3.org/2000/svg">
<path d="M14.5862 0.5H5.41381C2.42858 0.5 0 2.92858 0 5.91381V15.0863C0 18.0714 2.42858 20.5 5.41381 20.5H14.5863C17.5714 20.5 20 18.0714 20 15.0863V5.91381C20 2.92858 17.5714 0.5 14.5862 0.5V0.5ZM9.99998 15.9686C6.98454 15.9686 4.53139 13.5154 4.53139 10.5C4.53139 7.48454 6.98454 5.03139 9.99998 5.03139C13.0154 5.03139 15.4686 7.48454 15.4686 10.5C15.4686 13.5154 13.0154 15.9686 9.99998 15.9686ZM15.5993 6.32106C14.7082 6.32106 13.9834 5.59627 13.9834 4.70516C13.9834 3.81405 14.7082 3.08911 15.5993 3.08911C16.4904 3.08911 17.2154 3.81405 17.2154 4.70516C17.2154 5.59627 16.4904 6.32106 15.5993 6.32106Z" fill="#ECECEC"/>
</svg>
