<svg width="13" height="20" viewBox="0 0 13 20" fill="none" xmlns="http://www.w3.org/2000/svg">
<path d="M6.5 0C10.0841 0 13 3.11865 13 6.9519C13 11.7699 6.49361 20 6.49361 20C6.49361 20 0 11.533 0 6.9519C0 3.11865 2.91581 0 6.5 0ZM4.53881 8.98743C5.07959 9.56567 5.78974 9.85486 6.5 9.85486C7.21015 9.85486 7.92053 9.56567 8.46107 8.98743C9.5425 7.83093 9.5425 5.9491 8.46107 4.79248C7.93742 4.23218 7.24085 3.92358 6.5 3.92358C5.75915 3.92358 5.0627 4.2323 4.53881 4.79248C3.45738 5.9491 3.45738 7.83093 4.53881 8.98743Z" fill="#ECECEC"/>
</svg>
