<svg width="20" height="21" viewBox="0 0 20 21" fill="none" xmlns="http://www.w3.org/2000/svg">
<path d="M19.8234 4.47363L13.7578 10.5002L19.8234 16.5267C19.9331 16.2975 19.9996 16.0441 19.9996 15.7736V5.22672C19.9996 4.95613 19.9331 4.70281 19.8234 4.47363Z" fill="#ECECEC"/>
<path d="M18.2433 3.46875H1.75895C1.48836 3.46875 1.23504 3.53527 1.00586 3.64492L8.75832 11.3583C9.44379 12.0438 10.5585 12.0438 11.2439 11.3583L18.9964 3.64492C18.7672 3.53527 18.5139 3.46875 18.2433 3.46875Z" fill="#ECECEC"/>
<path d="M0.176172 4.47363C0.0665234 4.70281 0 4.95613 0 5.22672V15.7736C0 16.0442 0.0665234 16.2975 0.176172 16.5267L6.24176 10.5002L0.176172 4.47363Z" fill="#ECECEC"/>
<path d="M12.9308 11.3296L12.0725 12.1879C10.9304 13.3301 9.07187 13.3301 7.92973 12.1879L7.07144 11.3296L1.00586 17.3561C1.23504 17.4658 1.48836 17.5323 1.75895 17.5323H18.2433C18.5139 17.5323 18.7672 17.4658 18.9964 17.3561L12.9308 11.3296Z" fill="#ECECEC"/>
</svg>
