<svg width="235" height="160" viewBox="0 0 235 160" fill="none" xmlns="http://www.w3.org/2000/svg">
<path fill-rule="evenodd" clip-rule="evenodd" d="M162.58 45.6214L181.767 27.0123L163.703 26.9525L153.521 36.5862L116.876 0.0859528L45.7126 70.9562H63.0859L116.864 17.3906L170.648 70.9562H188.021L162.58 45.6214ZM12.1195 88.6438H56.4297L116.846 28.4364L177.292 88.6438H221.632L232.271 99.3067H170.623L139.547 68.3593L106.681 101.305H89.308L130.975 59.8146L116.846 45.7411L63.1039 99.2707V99.3126H1.48047L12.1195 88.6438ZM125.214 98.8698H153.611L139.475 84.7903L125.214 98.8698Z" fill="white"/>
<path fill-rule="evenodd" clip-rule="evenodd" d="M8.94545 155.729C8.37961 156.228 7.7337 156.628 7.0346 156.914C6.40553 157.147 5.73912 157.264 5.06792 157.26C4.11056 157.318 3.16575 157.019 2.41879 156.42C2.1152 156.152 1.87413 155.82 1.71235 155.449C1.55057 155.078 1.47195 154.677 1.48198 154.273C1.46614 153.786 1.57503 153.304 1.79839 152.872C2.02142 152.466 2.33829 152.119 2.72279 151.859C3.12316 151.602 3.56332 151.413 4.02564 151.298C4.54904 151.177 5.07947 151.088 5.61387 151.032C6.69291 150.933 7.75919 150.727 8.79655 150.415C8.79655 150.174 8.79655 150.02 8.79655 149.958C8.82502 149.683 8.79439 149.405 8.7067 149.142C8.619 148.879 8.47622 148.638 8.28782 148.434C7.70689 147.99 6.98392 147.771 6.25289 147.817C5.60111 147.769 4.95046 147.924 4.39168 148.261C3.92598 148.664 3.61288 149.212 3.5045 149.816L1.79839 149.576C1.91928 148.925 2.18885 148.31 2.5863 147.78C3.00057 147.287 3.54702 146.921 4.16213 146.724C4.93296 146.465 5.74315 146.339 6.55689 146.354C7.2998 146.33 8.0411 146.437 8.74692 146.669C9.22407 146.82 9.65226 147.095 9.98773 147.465C10.2745 147.824 10.4664 148.248 10.5461 148.699C10.6177 149.239 10.6467 149.784 10.6329 150.329V152.68C10.6061 153.72 10.6434 154.761 10.7446 155.797C10.8188 156.24 10.9655 156.667 11.1789 157.062H9.31769C9.12924 156.649 9.01181 156.206 8.97026 155.754L8.94545 155.729ZM8.80896 151.798C7.86273 152.127 6.88269 152.35 5.88685 152.464C5.35483 152.515 4.83152 152.633 4.32964 152.816C4.04387 152.931 3.79955 153.129 3.62858 153.384C3.42184 153.696 3.33677 154.073 3.38931 154.443C3.44185 154.814 3.62839 155.153 3.91397 155.396C4.36699 155.737 4.929 155.904 5.496 155.865C6.14473 155.881 6.78635 155.728 7.35721 155.421C7.87009 155.142 8.2823 154.71 8.53598 154.186C8.75595 153.625 8.85324 153.023 8.82137 152.421V151.804L8.80896 151.798ZM13.3503 146.576H19.4055V148.045H15.1309V157.038H13.3503V146.545V146.576ZM27.4645 153.649L29.3257 153.89C29.0864 154.87 28.5199 155.74 27.7189 156.359C26.8437 156.975 25.7876 157.286 24.7161 157.241C24.0374 157.284 23.3573 157.181 22.7217 156.941C22.086 156.7 21.5095 156.327 21.0309 155.846C20.0901 154.758 19.6137 153.347 19.7033 151.915C19.6084 150.43 20.0979 148.967 21.0681 147.835C21.5173 147.353 22.0658 146.974 22.6762 146.722C23.2866 146.471 23.9443 146.354 24.6045 146.379C25.2456 146.358 25.8837 146.475 26.4756 146.721C27.0675 146.967 27.5994 147.336 28.0353 147.804C28.9833 148.921 29.4612 150.358 29.3692 151.816C29.3692 151.915 29.3692 152.075 29.3692 152.285H21.5272C21.525 153.252 21.873 154.188 22.5075 154.921C22.7877 155.217 23.1275 155.452 23.5048 155.609C23.8821 155.767 24.2885 155.843 24.6975 155.834C25.2963 155.851 25.8836 155.668 26.3664 155.316C26.8899 154.891 27.2726 154.319 27.4645 153.674V153.649ZM21.6327 150.81H27.4831C27.4659 150.098 27.2324 149.407 26.8131 148.829C26.5508 148.5 26.2154 148.236 25.8332 148.059C25.451 147.881 25.0325 147.794 24.6107 147.804C24.2299 147.795 23.8512 147.863 23.4972 148.003C23.1433 148.143 22.8214 148.352 22.5509 148.619C21.9856 149.212 21.6646 149.993 21.6513 150.81H21.6327ZM31.5592 146.576H33.346V150.927H38.3092V146.576H40.0897V157.068H38.2906V152.433H33.3273V157.068H31.5778V146.576H31.5592ZM41.8145 146.576H50.3264V148.045H46.9638V157.038H45.1771V148.045H41.8145V146.576ZM58.6709 153.205L60.408 153.452C60.2747 154.525 59.7545 155.514 58.9438 156.235C58.1362 156.916 57.1046 157.276 56.0466 157.247C55.4023 157.274 54.7597 157.163 54.1624 156.922C53.5651 156.68 53.0271 156.313 52.5847 155.846C51.6468 154.726 51.178 153.29 51.2756 151.835C51.2524 150.819 51.4447 149.809 51.8402 148.872C52.18 148.067 52.7834 147.399 53.5525 146.977C54.3129 146.563 55.1674 146.351 56.0341 146.36C57.0524 146.303 58.0584 146.605 58.8756 147.212C59.6312 147.834 60.1267 148.715 60.2653 149.681L58.5468 149.94C58.428 149.32 58.1075 148.756 57.6348 148.335C57.2104 147.979 56.6696 147.791 56.1148 147.804C55.6992 147.791 55.2859 147.869 54.9048 148.035C54.5238 148.2 54.1847 148.449 53.9124 148.761C53.354 149.378 53.0748 150.409 53.0748 151.798C53.0748 153.186 53.3416 154.217 53.8813 154.853C54.1383 155.161 54.4622 155.407 54.8286 155.573C55.1951 155.739 55.5945 155.819 55.9969 155.809C56.6405 155.838 57.2701 155.617 57.7527 155.192C58.2737 154.663 58.5901 153.968 58.646 153.23L58.6709 153.205ZM60.9974 146.576H69.5093V148.045H66.1467V157.038H64.36V148.045H60.9974V146.576ZM71.2092 146.576H75.3101C76.0694 146.546 76.8288 146.632 77.5622 146.829C78.0575 147.008 78.489 147.328 78.803 147.749C79.1618 148.209 79.3502 148.778 79.3365 149.36C79.3467 149.813 79.2399 150.261 79.0263 150.662C78.8015 151.053 78.4759 151.376 78.0833 151.6C78.5863 151.765 79.0219 152.087 79.3241 152.52C79.6524 152.985 79.822 153.544 79.808 154.112C79.8096 154.536 79.7144 154.954 79.5295 155.336C79.3447 155.718 79.075 156.053 78.7409 156.315C77.9043 156.851 76.9168 157.104 75.9243 157.038H71.1968V146.545L71.2092 146.576ZM72.9898 150.989H74.851C75.3729 151.011 75.8955 150.971 76.4082 150.872C76.7004 150.784 76.9624 150.617 77.1651 150.39C77.2913 150.246 77.3855 150.076 77.4418 149.893C77.498 149.71 77.515 149.517 77.4916 149.327C77.4682 149.136 77.405 148.953 77.306 148.789C77.207 148.624 77.0745 148.482 76.917 148.372C76.2814 148.11 75.5933 147.998 74.9068 148.045H72.9588V150.989H72.9898ZM72.9898 155.587H75.3349C76.0444 155.645 76.757 155.524 77.4071 155.235C77.6049 155.099 77.7633 154.913 77.8666 154.696C77.97 154.48 78.0148 154.24 77.9965 154.001C77.9956 153.663 77.8822 153.336 77.6739 153.069C77.4655 152.793 77.1634 152.602 76.8239 152.532C76.2689 152.437 75.7056 152.397 75.1426 152.415H72.9898V155.618V155.587ZM81.0551 151.804C81.0551 149.872 81.5948 148.446 82.6805 147.514C83.6009 146.735 84.7788 146.321 85.9873 146.354C86.6442 146.331 87.2986 146.445 87.9087 146.688C88.5188 146.932 89.0709 147.299 89.5298 147.767C90.0053 148.293 90.3713 148.908 90.6066 149.575C90.842 150.242 90.942 150.95 90.9009 151.656C90.9511 152.747 90.7384 153.835 90.2805 154.828C89.8842 155.587 89.2683 156.211 88.5123 156.618C87.7334 157.036 86.8598 157.248 85.9749 157.235C85.3143 157.262 84.6555 157.151 84.041 156.908C83.4265 156.666 82.87 156.298 82.4075 155.828C81.4955 154.89 81.0426 153.544 81.0426 151.779L81.0551 151.804ZM82.879 151.804C82.7974 152.877 83.1105 153.943 83.76 154.803C84.0337 155.124 84.3755 155.38 84.7606 155.552C85.1458 155.725 85.5648 155.811 85.9873 155.803C86.4077 155.811 86.8247 155.725 87.207 155.551C87.5894 155.377 87.9274 155.119 88.1959 154.797C88.8504 153.92 89.1633 152.837 89.0769 151.748C89.1555 150.696 88.8394 149.651 88.1897 148.817C87.9201 148.498 87.5826 148.243 87.2017 148.07C86.8208 147.897 86.4059 147.811 85.9873 147.817C85.5654 147.809 85.147 147.894 84.762 148.066C84.377 148.238 84.0349 148.492 83.76 148.81C83.1114 149.669 82.7984 150.733 82.879 151.804ZM98.6249 146.57H100.443V150.921H105.406V146.57H107.186V157.062H105.406V152.427H100.443V157.062H98.6435V146.57H98.6249ZM116.983 153.643L118.844 153.884C118.605 154.864 118.038 155.734 117.237 156.353C116.361 156.968 115.306 157.278 114.234 157.235C113.56 157.269 112.887 157.16 112.258 156.917C111.63 156.673 111.06 156.3 110.586 155.822C109.633 154.73 109.149 153.309 109.24 151.866C109.146 150.382 109.633 148.92 110.599 147.786C111.049 147.305 111.597 146.926 112.207 146.675C112.818 146.423 113.475 146.306 114.135 146.329C114.777 146.308 115.416 146.424 116.01 146.67C116.603 146.916 117.135 147.286 117.572 147.755C118.52 148.871 118.998 150.308 118.906 151.767C118.906 151.866 118.906 152.026 118.906 152.236H111.064C111.062 153.203 111.41 154.139 112.044 154.871C112.324 155.168 112.664 155.402 113.042 155.56C113.419 155.717 113.825 155.794 114.234 155.785C114.833 155.801 115.42 155.619 115.903 155.266C116.423 154.838 116.805 154.267 117.001 153.625L116.983 153.643ZM111.145 150.804H117.001C116.981 150.092 116.748 149.402 116.331 148.823C116.068 148.495 115.733 148.232 115.351 148.054C114.969 147.876 114.55 147.789 114.129 147.798C113.748 147.789 113.369 147.857 113.015 147.997C112.661 148.137 112.34 148.346 112.069 148.613C111.497 149.203 111.168 149.985 111.145 150.804ZM122.027 146.57H129.36V155.618H130.495V160.031H129.037V157.068H120.773V160.031H119.315V155.618H120.246C121.487 153.923 122.087 150.919 122.045 146.607L122.027 146.57ZM123.509 148.039C123.394 151.446 122.872 153.972 121.946 155.618H127.598V148.045L123.509 148.039ZM132.456 146.57H136.556C137.314 146.54 138.071 146.626 138.802 146.823C139.296 147.004 139.727 147.324 140.043 147.743C140.4 148.203 140.586 148.772 140.57 149.354C140.581 149.807 140.474 150.255 140.26 150.656C140.036 151.045 139.713 151.368 139.323 151.594C139.825 151.761 140.26 152.083 140.564 152.514C140.893 152.979 141.062 153.537 141.048 154.106C141.05 154.53 140.954 154.948 140.77 155.33C140.585 155.712 140.315 156.046 139.981 156.309C139.147 156.844 138.161 157.098 137.171 157.031H132.443V146.539L132.456 146.57ZM134.236 150.983H136.128C136.648 151.005 137.169 150.965 137.679 150.866C137.974 150.78 138.238 150.613 138.442 150.384C138.66 150.149 138.778 149.84 138.771 149.52C138.791 149.293 138.747 149.065 138.644 148.861C138.541 148.657 138.383 148.486 138.188 148.366C137.555 148.104 136.869 147.992 136.184 148.039H134.255V150.983H134.236ZM134.236 155.581H136.575C137.285 155.639 137.997 155.518 138.647 155.229C138.846 155.093 139.005 154.908 139.108 154.691C139.212 154.474 139.256 154.234 139.237 153.995C139.236 153.657 139.122 153.329 138.914 153.063C138.707 152.786 138.404 152.595 138.064 152.526C137.511 152.43 136.95 152.391 136.389 152.409H134.255V155.618L134.236 155.581ZM143.251 146.576H145.031V154.556L149.994 146.576H151.911V157.068H150.131V149.107L145.168 157.038H143.251V146.545V146.576ZM160.926 146.576V151.088C161.364 151.136 161.805 151.024 162.167 150.773C162.598 150.198 162.935 149.558 163.166 148.878C163.395 148.174 163.771 147.526 164.27 146.977C164.724 146.673 165.269 146.532 165.815 146.576H166.466V148.039H165.982C165.663 147.996 165.338 148.071 165.07 148.249C164.806 148.649 164.597 149.083 164.45 149.539C164.281 150.047 164.034 150.525 163.718 150.958C163.427 151.271 163.071 151.517 162.675 151.68C163.445 151.886 164.195 152.596 164.928 153.81L166.826 157.038H164.865L162.961 153.797C162.71 153.307 162.367 152.869 161.95 152.507C161.645 152.295 161.279 152.187 160.907 152.199V157.038H159.083V152.199C158.72 152.189 158.364 152.295 158.066 152.501C157.643 152.864 157.297 153.307 157.048 153.804L155.131 157.038H153.177L155.125 153.797C155.865 152.563 156.62 151.853 157.39 151.668C156.962 151.497 156.582 151.223 156.285 150.872C155.898 150.226 155.58 149.541 155.336 148.829C155.261 148.561 155.097 148.326 154.871 148.162C154.629 148.066 154.368 148.024 154.108 148.039H153.58V146.57H153.828C154.316 146.548 154.804 146.589 155.28 146.693C155.577 146.787 155.839 146.967 156.031 147.212C156.386 147.728 156.675 148.286 156.893 148.872C157.127 149.535 157.459 150.159 157.88 150.724C158.229 150.977 158.66 151.094 159.09 151.051V146.539L160.926 146.576ZM168.123 146.576H169.903V154.556L174.866 146.576H176.752V157.068H174.972V149.107L170.009 157.038H168.092V146.545L168.123 146.576ZM179.501 146.576H182.243L185.022 154.945L188.124 146.576H190.668V157.068H188.85V148.613L185.748 157.038H184.16L181.232 148.212V157.038H179.488V146.545L179.501 146.576ZM192.697 151.804C192.697 149.872 193.243 148.446 194.322 147.514C195.244 146.737 196.421 146.324 197.629 146.354C198.286 146.331 198.941 146.444 199.551 146.688C200.161 146.931 200.713 147.299 201.172 147.767C201.649 148.292 202.017 148.906 202.254 149.574C202.49 150.241 202.591 150.949 202.549 151.656C202.596 152.747 202.383 153.834 201.928 154.828C201.528 155.586 200.911 156.209 200.154 156.618C199.375 157.037 198.502 157.249 197.617 157.235C196.956 157.262 196.297 157.151 195.683 156.908C195.068 156.666 194.512 156.298 194.049 155.828C193.137 154.89 192.684 153.544 192.684 151.779L192.697 151.804ZM194.521 151.804C194.439 152.877 194.752 153.943 195.402 154.803C195.675 155.124 196.017 155.38 196.402 155.552C196.788 155.725 197.207 155.811 197.629 155.803C198.05 155.811 198.468 155.724 198.851 155.55C199.234 155.376 199.574 155.119 199.844 154.797C200.496 153.919 200.809 152.837 200.725 151.748C200.799 150.696 200.483 149.653 199.838 148.817C199.567 148.498 199.228 148.243 198.846 148.07C198.464 147.897 198.049 147.81 197.629 147.817C197.199 147.806 196.773 147.891 196.381 148.066C195.989 148.242 195.642 148.502 195.365 148.829C194.716 149.688 194.403 150.751 194.484 151.822L194.521 151.804ZM211.495 153.205L213.238 153.452C213.108 154.53 212.588 155.524 211.774 156.248C210.967 156.928 209.935 157.289 208.877 157.26C208.233 157.287 207.59 157.176 206.993 156.934C206.396 156.692 205.857 156.326 205.415 155.859C204.477 154.738 204.008 153.302 204.106 151.847C204.084 150.832 204.274 149.823 204.664 148.885C205.008 148.08 205.613 147.413 206.383 146.99C207.143 146.575 207.998 146.362 208.865 146.373C209.867 146.329 210.853 146.632 211.656 147.23C212.413 147.853 212.911 148.733 213.052 149.699L211.334 149.958C211.22 149.349 210.911 148.793 210.453 148.372C210.028 148.016 209.488 147.828 208.933 147.841C208.519 147.829 208.108 147.909 207.729 148.074C207.351 148.24 207.014 148.487 206.743 148.798C206.184 149.415 205.899 150.446 205.899 151.835C205.899 153.223 206.172 154.254 206.712 154.89C206.968 155.199 207.292 155.445 207.658 155.611C208.025 155.777 208.425 155.857 208.827 155.846C209.471 155.875 210.101 155.654 210.583 155.229C211.102 154.699 211.416 154.004 211.47 153.267L211.495 153.205ZM213.828 146.576H222.34V148.045H218.94V157.038H217.159V148.045H213.797V146.576H213.828ZM224.04 146.576H225.82V154.556L230.783 146.576H232.694V157.068H230.914V149.107L225.951 157.038H224.033L224.04 146.576Z" fill="white"/>
<path fill-rule="evenodd" clip-rule="evenodd" d="M7.28883 126.289H11.9481L9.68359 120.302L7.28883 126.289ZM2.72266 131.967V131.122H3.78355C3.91486 131.126 4.04569 131.103 4.16753 131.054C4.28938 131.006 4.39953 130.932 4.49081 130.838C4.7495 130.537 4.94749 130.189 5.07399 129.813L10.974 114.538H12.0039L18.4561 131.122H19.9761V131.967H11.6565V131.122H13.7472L12.2397 127.128H7.00965L5.87431 130.048C5.84262 130.122 5.82375 130.201 5.81847 130.282C5.81105 130.408 5.81105 130.533 5.81847 130.659C5.81755 130.729 5.83621 130.797 5.87237 130.857C5.90853 130.917 5.96076 130.966 6.02321 130.998C6.19376 131.091 6.38744 131.134 6.58157 131.122H8.12018V131.967H2.72266ZM21.1983 131.967V131.122H22.9665V115.692H21.1983V114.883H29.7599V115.667H27.3775V131.097H29.8591C31.0764 131.182 32.2789 130.79 33.2093 130.004C34.0117 129.26 34.6321 128.013 35.0705 126.264H35.8895L35.6972 131.967H21.1983ZM37.1799 131.967V131.122H38.9543V115.692H37.1799V114.883H45.7415V115.667H43.3654V131.097H45.847C47.0591 131.167 48.2513 130.767 49.1723 129.98C49.9747 129.235 50.5951 127.988 51.0336 126.24H51.8525L51.6602 131.942L37.1799 131.967ZM52.7707 131.967V131.122H54.8863V115.692H52.7707V114.883H61.4563V115.667H59.3221V131.097H61.4377V131.942L52.7707 131.967ZM66.7918 126.289H71.4511L69.1804 120.302L66.7918 126.289ZM62.2256 131.967V131.122H63.2803C63.4117 131.127 63.5426 131.104 63.6645 131.055C63.7864 131.006 63.8965 130.932 63.9876 130.838C64.2463 130.537 64.4443 130.189 64.5708 129.813L70.4708 114.538H71.5007L77.9529 131.122H79.4791V131.967H71.1533V131.122H73.244L71.7364 127.128H66.5064L65.3711 130.048C65.3394 130.122 65.3205 130.201 65.3153 130.282C65.3081 130.408 65.3081 130.533 65.3153 130.659C65.313 130.728 65.3305 130.797 65.3656 130.857C65.4007 130.917 65.452 130.966 65.5138 130.998C65.6846 131.091 65.8781 131.133 66.0722 131.122H67.6108V131.967H62.2256ZM80.298 131.967V131.122H81.6319C81.7598 131.135 81.8891 131.123 82.0119 131.084C82.1346 131.046 82.2481 130.983 82.3454 130.899C82.5091 130.638 82.5791 130.329 82.5439 130.023V116.568C82.5618 116.439 82.5517 116.308 82.5143 116.184C82.4768 116.059 82.4128 115.944 82.3267 115.846C82.0457 115.696 81.7257 115.634 81.4086 115.667H80.3601V114.883H87.3086L94.5425 124.721V116.939C94.5867 116.579 94.5009 116.216 94.3006 115.914C93.9988 115.71 93.6327 115.622 93.2707 115.667H92.1478V114.883H97.6445V115.667H96.6395C96.4813 115.65 96.3213 115.665 96.1689 115.711C96.0165 115.756 95.8749 115.832 95.7523 115.933C95.5541 116.229 95.4663 116.585 95.5041 116.939V132.368H94.7969L83.5614 117V130.19C83.5539 130.317 83.5726 130.444 83.6163 130.564C83.66 130.684 83.7279 130.794 83.8157 130.887C84.0163 131.059 84.2772 131.146 84.5416 131.128H86.074V131.973L80.298 131.967ZM114.327 126.838V131.967H113.477L112.311 131.017C111.788 131.477 111.175 131.825 110.512 132.041C109.764 132.279 108.983 132.396 108.198 132.387C107.083 132.4 105.979 132.168 104.965 131.708C103.921 131.206 102.99 130.499 102.229 129.628C101.436 128.78 100.806 127.795 100.368 126.721C99.95 125.67 99.7393 124.549 99.7477 123.419C99.737 122.299 99.9478 121.187 100.368 120.148C100.811 119.079 101.442 118.097 102.229 117.247C103.001 116.384 103.94 115.684 104.99 115.192C106.014 114.735 107.125 114.504 108.247 114.513C108.944 114.507 109.637 114.611 110.301 114.822C110.964 115.033 111.592 115.343 112.162 115.741L113.093 114.852H113.961L114.067 119.586H113.142C112.752 118.345 112.062 117.218 111.132 116.303C110.313 115.623 109.27 115.267 108.204 115.303C106.876 115.303 105.983 115.735 105.505 116.599C105.027 117.463 104.798 119.636 104.798 123.11C104.798 124.962 104.798 126.307 104.86 127.215C104.873 127.877 104.947 128.536 105.083 129.184C105.213 129.902 105.585 130.555 106.138 131.035C106.743 131.45 107.471 131.65 108.204 131.603C109.423 131.602 110.594 131.123 111.461 130.27C112.437 129.358 113.09 128.156 113.322 126.844L114.327 126.838ZM116.679 131.967V131.122H118.769V115.692H116.964V114.883H131.277L131.332 119.376H130.458C130.098 118.274 129.492 117.267 128.683 116.432C127.925 115.877 126.993 115.606 126.053 115.667H123.087V122.685H123.329H123.695C124.081 122.713 124.469 122.662 124.834 122.535C125.199 122.407 125.534 122.206 125.817 121.944C126.381 121.269 126.712 120.432 126.76 119.555H127.635V126.838H126.76C126.764 125.917 126.456 125.021 125.885 124.295C125.577 124.017 125.213 123.805 124.818 123.672C124.423 123.539 124.005 123.489 123.59 123.524H123.087V131.091H125.966C127.178 131.162 128.371 130.762 129.291 129.974C130.094 129.229 130.714 127.982 131.153 126.233H131.978L131.792 131.936L116.679 131.967ZM142.072 131.967V131.122H144.156V115.692H142.072V114.883H150.577V115.642H148.518V122.66H154.275V115.667H152.215V114.883H160.696V115.642H158.612V131.072H160.696V131.918H152.215V131.072H154.275V123.66H148.518V131.122H150.577V131.967H142.072ZM167.936 123.438C167.936 125.635 167.974 127.141 168.048 127.968C168.073 128.602 168.205 129.228 168.439 129.819C168.665 130.389 169.078 130.865 169.611 131.171C170.269 131.444 170.974 131.584 171.687 131.584C172.399 131.584 173.104 131.444 173.762 131.171C174.298 130.867 174.714 130.39 174.941 129.819C175.18 129.19 175.318 128.528 175.35 127.857C175.425 126.986 175.468 125.517 175.468 123.45C175.468 121.382 175.425 119.938 175.35 119.062C175.316 118.39 175.178 117.728 174.941 117.099C174.712 116.531 174.297 116.056 173.762 115.754C173.104 115.481 172.399 115.34 171.687 115.34C170.974 115.34 170.269 115.481 169.611 115.754C169.08 116.059 168.667 116.532 168.439 117.099C168.207 117.69 168.075 118.316 168.048 118.951C167.974 119.784 167.936 121.284 167.936 123.462V123.438ZM162.812 123.438C162.809 122.307 163.037 121.188 163.482 120.148C163.946 119.07 164.607 118.086 165.43 117.247C166.257 116.39 167.24 115.697 168.327 115.204C169.392 114.764 170.534 114.538 171.687 114.538C172.84 114.538 173.981 114.764 175.046 115.204C176.135 115.696 177.121 116.389 177.95 117.247C178.779 118.086 179.445 119.069 179.916 120.148C180.364 121.187 180.594 122.307 180.593 123.438C180.598 124.585 180.368 125.721 179.916 126.777C179.45 127.858 178.783 128.842 177.95 129.677C177.137 130.534 176.16 131.22 175.077 131.696C174.004 132.147 172.849 132.374 171.684 132.362C170.526 132.375 169.379 132.148 168.315 131.696C167.231 131.215 166.251 130.53 165.43 129.677C164.602 128.841 163.941 127.857 163.482 126.777C163.038 125.719 162.81 124.584 162.812 123.438ZM184.662 127.344V115.667H182.652V114.883H191.239V115.667H188.993V127.258C188.993 128.702 189.278 129.727 189.837 130.418C190.179 130.77 190.596 131.042 191.058 131.214C191.519 131.386 192.013 131.453 192.504 131.412C193.101 131.419 193.694 131.327 194.26 131.14C194.767 130.972 195.232 130.698 195.625 130.338C196.052 129.952 196.369 129.46 196.543 128.912C196.768 127.95 196.86 126.961 196.816 125.974V117.019C196.864 116.634 196.786 116.244 196.593 115.908C196.45 115.747 196.09 115.667 195.526 115.667H194.676V114.883H200.098V115.667H199.254C198.836 115.62 198.414 115.716 198.057 115.939C197.825 116.258 197.723 116.653 197.772 117.043V125.993C197.799 126.918 197.737 127.844 197.585 128.758C197.483 129.283 197.272 129.781 196.965 130.22C196.432 130.956 195.695 131.52 194.843 131.844C193.762 132.23 192.617 132.412 191.468 132.381C189.241 132.381 187.547 131.949 186.387 131.097C185.813 130.664 185.355 130.096 185.053 129.445C184.751 128.794 184.615 128.079 184.656 127.363L184.662 127.344ZM201.959 132.165V127.153H202.964C203.286 128.415 203.962 129.56 204.912 130.455C205.798 131.205 206.932 131.603 208.095 131.572C209.104 131.609 210.092 131.29 210.887 130.671C211.24 130.404 211.524 130.058 211.717 129.661C211.91 129.265 212.006 128.828 211.997 128.387C212.033 127.96 211.941 127.533 211.735 127.156C211.529 126.78 211.217 126.472 210.837 126.27C209.943 125.806 208.983 125.481 207.99 125.308C207.462 125.19 207.065 125.092 206.786 125.024C205.426 124.761 204.17 124.118 203.163 123.172C202.38 122.266 201.978 121.094 202.04 119.901C202.01 119.185 202.128 118.471 202.387 117.803C202.645 117.134 203.038 116.525 203.541 116.013C204.062 115.514 204.679 115.125 205.355 114.871C206.031 114.616 206.752 114.501 207.475 114.531C208.106 114.526 208.734 114.619 209.336 114.809C209.916 114.996 210.462 115.273 210.955 115.63L211.886 114.883H212.711L212.816 119.401H211.948C211.711 118.244 211.124 117.187 210.267 116.371C209.462 115.665 208.417 115.291 207.344 115.328C206.492 115.292 205.652 115.54 204.956 116.031C204.666 116.232 204.429 116.5 204.266 116.811C204.103 117.123 204.018 117.47 204.019 117.821C204.019 118.895 205.167 119.673 207.462 120.197L208.17 120.352C210.31 120.845 211.818 121.555 212.68 122.462C213.606 123.536 214.074 124.927 213.983 126.338C214.01 127.132 213.878 127.923 213.593 128.665C213.309 129.407 212.878 130.085 212.326 130.659C211.789 131.218 211.14 131.66 210.421 131.955C209.702 132.251 208.929 132.394 208.151 132.374C207.392 132.387 206.636 132.289 205.905 132.084C205.253 131.889 204.642 131.58 204.1 131.171L202.89 132.165H201.959ZM215.931 131.967V131.122H218.015V115.692H216.229V114.883H230.498L230.554 119.376H229.679C229.318 118.273 228.709 117.267 227.898 116.432C227.141 115.875 226.208 115.604 225.268 115.667H222.309V122.685H222.544H222.917C223.302 122.712 223.69 122.661 224.055 122.534C224.42 122.406 224.755 122.205 225.038 121.944C225.6 121.268 225.93 120.431 225.981 119.555H226.85V126.838H225.981C225.982 125.917 225.674 125.023 225.107 124.295C224.797 124.017 224.434 123.806 224.039 123.673C223.644 123.54 223.226 123.489 222.811 123.524H222.309V131.091H225.181C226.394 131.164 227.587 130.764 228.506 129.974C229.46 128.92 230.104 127.626 230.368 126.233H231.187L231.007 131.936L215.931 131.967Z" fill="white"/>
<path d="M233.543 137.349H0.240234V139.528H233.543V137.349Z" fill="white"/>
</svg>
