<svg width="0" height="0" class="hidden">
 <symbol xmlns="http://www.w3.org/2000/svg" viewBox="0 0 256 512" id="arrow-slide">
    <path d="M9.4 233.4c-12.5 12.5-12.5 32.8 0 45.3l160 160c12.5 12.5 32.8 12.5 45.3 0s12.5-32.8 0-45.3L77.3 256 214.6 118.6c12.5-12.5 12.5-32.8 0-45.3s-32.8-12.5-45.3 0l-160 160z"></path>
  </symbol>
<symbol fill="none" xmlns="http://www.w3.org/2000/svg" viewBox="0 0 20 20" id="filter">
    <path d="M1 5.47852V2.47852C1 2.2133 1.10536 1.95895 1.29289 1.77141C1.48043 1.58387 1.73478 1.47852 2 1.47852H18C18.2652 1.47852 18.5196 1.58387 18.7071 1.77141C18.8946 1.95895 19 2.2133 19 2.47852V5.47852M1 5.47852L7.65 11.1785C7.75977 11.2724 7.84789 11.389 7.90831 11.5201C7.96873 11.6513 8.00001 11.7941 8 11.9385V18.1985C8.00004 18.3504 8.03469 18.5003 8.10131 18.6368C8.16792 18.7733 8.26477 18.8929 8.38448 18.9864C8.50419 19.0799 8.64363 19.1449 8.79222 19.1764C8.9408 19.208 9.09462 19.2053 9.242 19.1685L11.242 18.6685C11.4584 18.6145 11.6506 18.4897 11.788 18.314C11.9253 18.1382 11.9999 17.9216 12 17.6985V11.9385C12 11.7941 12.0313 11.6513 12.0917 11.5201C12.1521 11.389 12.2402 11.2724 12.35 11.1785L19 5.47852M1 5.47852H19" stroke="black" stroke-width="1.5" stroke-linecap="round" stroke-linejoin="round"></path>
  </symbol>
 <symbol  xmlns="http://www.w3.org/2000/svg" viewBox="0 0 8 8" id="v">
    <path d="M7.92984 0.243574L4.68184 7.66357H3.30984L0.0618437 0.243574H1.46184L4.00984 6.19357L6.61384 0.243574H7.92984Z"></path>
  </symbol>
<symbol fill="none" xmlns="http://www.w3.org/2000/svg" viewBox="0 0 19 19" id="home">
    <g clip-path="url(#clip0_1_1626)">
      <path d="M0 6.33391L7.7045 2.48166C7.77039 2.44876 7.84302 2.43164 7.91667 2.43164C7.99031 2.43164 8.06294 2.44876 8.12883 2.48166L15.8333 6.33391M14.25 8.70891V15.0422C14.25 15.4622 14.0832 15.8649 13.7863 16.1618C13.4893 16.4588 13.0866 16.6256 12.6667 16.6256H3.16667C2.74674 16.6256 2.34401 16.4588 2.04708 16.1618C1.75015 15.8649 1.58333 15.4622 1.58333 15.0422V8.70891"  stroke-width="1.1875" stroke-linecap="round" stroke-linejoin="round"></path>
    </g>
    <defs>
      <clipPath id="clip0_1_1626">
        <rect width="19" height="19" fill="white"></rect>
      </clipPath>
    </defs>
  </symbol>
  <symbol fill="none" xmlns="http://www.w3.org/2000/svg" viewBox="0 0 16 21" id="arrow-down">
    <path d="M7.29289 20.2071C7.68342 20.5976 8.31658 20.5976 8.70711 20.2071L15.0711 13.8431C15.4616 13.4526 15.4616 12.8195 15.0711 12.4289C14.6805 12.0384 14.0474 12.0384 13.6569 12.4289L8 18.0858L2.34315 12.4289C1.95262 12.0384 1.31946 12.0384 0.928932 12.4289C0.538407 12.8195 0.538407 13.4526 0.928932 13.8431L7.29289 20.2071ZM7 0.5L7 19.5L9 19.5L9 0.5L7 0.5Z" fill="#686868"></path>
  </symbol>
  <symbol  xmlns="http://www.w3.org/2000/svg" viewBox="0 0 111 16" id="arrow-long-left">
    <path d="M0.292892 8.70711C-0.0976334 8.31658 -0.0976334 7.68342 0.292892 7.29289L6.65685 0.928932C7.04738 0.538408 7.68054 0.538408 8.07107 0.928932C8.46159 1.31946 8.46159 1.95262 8.07107 2.34315L2.41422 8L8.07107 13.6569C8.46159 14.0474 8.46159 14.6805 8.07107 15.0711C7.68054 15.4616 7.04738 15.4616 6.65685 15.0711L0.292892 8.70711ZM111 9H1V7H111V9Z" ></path>
  </symbol>
    <symbol  xmlns="http://www.w3.org/2000/svg" viewBox="0 0 20 21" id="instagram">
    <path d="M14.5862 0.5H5.41381C2.42858 0.5 0 2.92858 0 5.91381V15.0863C0 18.0714 2.42858 20.5 5.41381 20.5H14.5863C17.5714 20.5 20 18.0714 20 15.0863V5.91381C20 2.92858 17.5714 0.5 14.5862 0.5V0.5ZM9.99998 15.9686C6.98454 15.9686 4.53139 13.5154 4.53139 10.5C4.53139 7.48454 6.98454 5.03139 9.99998 5.03139C13.0154 5.03139 15.4686 7.48454 15.4686 10.5C15.4686 13.5154 13.0154 15.9686 9.99998 15.9686ZM15.5993 6.32106C14.7082 6.32106 13.9834 5.59627 13.9834 4.70516C13.9834 3.81405 14.7082 3.08911 15.5993 3.08911C16.4904 3.08911 17.2154 3.81405 17.2154 4.70516C17.2154 5.59627 16.4904 6.32106 15.5993 6.32106Z" ></path>
  </symbol>
  <symbol  xmlns="http://www.w3.org/2000/svg" viewBox="0 0 37 16" id="arrow-right">
    <path d="M36.7071 8.70711C37.0976 8.31658 37.0976 7.68342 36.7071 7.29289L30.3431 0.928932C29.9526 0.538408 29.3195 0.538408 28.9289 0.928932C28.5384 1.31946 28.5384 1.95262 28.9289 2.34315L34.5858 8L28.9289 13.6569C28.5384 14.0474 28.5384 14.6805 28.9289 15.0711C29.3195 15.4616 29.9526 15.4616 30.3431 15.0711L36.7071 8.70711ZM0 9L36 9V7L0 7L0 9Z" ></path>
  </symbol>
  <symbol  xmlns="http://www.w3.org/2000/svg" viewBox="0 0 16 19" id="arrow-top">
    <path d="M8.70711 0.292892C8.31658 -0.0976314 7.68342 -0.0976315 7.29289 0.292892L0.928933 6.65685C0.538408 7.04738 0.538408 7.68054 0.928933 8.07107C1.31946 8.46159 1.95262 8.46159 2.34315 8.07107L8 2.41421L13.6569 8.07107C14.0474 8.46159 14.6805 8.46159 15.0711 8.07107C15.4616 7.68054 15.4616 7.04738 15.0711 6.65685L8.70711 0.292892ZM9 19L9 1L7 1L7 19L9 19Z" ></path>
  </symbol>
  <symbol  xmlns="http://www.w3.org/2000/svg" viewBox="0 0 20 20" id="call">
    <path d="M18.3952 13.1277C17.1707 13.1277 15.9684 12.9362 14.8291 12.5597C14.2708 12.3693 13.5845 12.544 13.2438 12.8939L10.995 14.5915C8.38703 13.1994 6.78057 11.5934 5.40745 9.00505L7.0551 6.81484C7.48318 6.38734 7.63672 5.76286 7.45276 5.17693C7.07464 4.03161 6.88255 2.8299 6.88255 1.6049C6.8826 0.719948 6.16266 0 5.27776 0H1.60484C0.719948 0 0 0.719948 0 1.60484C0 11.7481 8.25198 20 18.3952 20C19.2801 20 20.0001 19.2801 20.0001 18.3952V14.7325C20 13.8477 19.2801 13.1277 18.3952 13.1277Z" ></path>
  </symbol>
  <symbol  xmlns="http://www.w3.org/2000/svg" viewBox="0 0 111 16" id="arrow-long-right">
    <path d="M110.707 8.70711C111.098 8.31658 111.098 7.68342 110.707 7.29289L104.343 0.928932C103.953 0.538408 103.319 0.538408 102.929 0.928932C102.538 1.31946 102.538 1.95262 102.929 2.34315L108.586 8L102.929 13.6569C102.538 14.0474 102.538 14.6805 102.929 15.0711C103.319 15.4616 103.953 15.4616 104.343 15.0711L110.707 8.70711ZM0 9H110V7H0V9Z" ></path>
  </symbol>
  <symbol  xmlns="http://www.w3.org/2000/svg" viewBox="0 0 23 13" id="go-to-top">
    <path d="M12.5394 0.580631C11.9654 0.00656042 11.0346 0.00656119 10.4606 0.580632L1.10554 9.93566C0.531466 10.5097 0.531466 11.4405 1.10554 12.0146C1.67961 12.5886 2.61036 12.5886 3.18443 12.0146L11.5 3.69897L19.8156 12.0145C20.3897 12.5886 21.3204 12.5886 21.8945 12.0145C22.4685 11.4405 22.4685 10.5097 21.8945 9.93565L12.5394 0.580631ZM12.97 3.58008L12.97 1.62008L10.03 1.62008L10.03 3.58008L12.97 3.58008Z"></path>
  </symbol>
  <symbol  xmlns="http://www.w3.org/2000/svg" viewBox="0 0 13 20" id="locate">
    <path d="M6.5 0C10.0841 0 13 3.11865 13 6.9519C13 11.7699 6.49361 20 6.49361 20C6.49361 20 0 11.533 0 6.9519C0 3.11865 2.91581 0 6.5 0ZM4.53881 8.98743C5.07959 9.56567 5.78974 9.85486 6.5 9.85486C7.21015 9.85486 7.92053 9.56567 8.46107 8.98743C9.5425 7.83093 9.5425 5.9491 8.46107 4.79248C7.93742 4.23218 7.24085 3.92358 6.5 3.92358C5.75915 3.92358 5.0627 4.2323 4.53881 4.79248C3.45738 5.9491 3.45738 7.83093 4.53881 8.98743Z" ></path>
  </symbol>
  <symbol  xmlns="http://www.w3.org/2000/svg" viewBox="0 0 20 21" id="mail">
    <path d="M19.8234 4.47363L13.7578 10.5002L19.8234 16.5267C19.9331 16.2975 19.9996 16.0441 19.9996 15.7736V5.22672C19.9996 4.95613 19.9331 4.70281 19.8234 4.47363Z"></path>
    <path d="M18.2433 3.46875H1.75895C1.48836 3.46875 1.23504 3.53527 1.00586 3.64492L8.75832 11.3583C9.44379 12.0438 10.5585 12.0438 11.2439 11.3583L18.9964 3.64492C18.7672 3.53527 18.5139 3.46875 18.2433 3.46875Z" ></path>
    <path d="M0.176172 4.47363C0.0665234 4.70281 0 4.95613 0 5.22672V15.7736C0 16.0442 0.0665234 16.2975 0.176172 16.5267L6.24176 10.5002L0.176172 4.47363Z" ></path>
    <path d="M12.9308 11.3296L12.0725 12.1879C10.9304 13.3301 9.07187 13.3301 7.92973 12.1879L7.07144 11.3296L1.00586 17.3561C1.23504 17.4658 1.48836 17.5323 1.75895 17.5323H18.2433C18.5139 17.5323 18.7672 17.4658 18.9964 17.3561L12.9308 11.3296Z" ></path>
  </symbol>
  <symbol xmlns="http://www.w3.org/2000/svg" viewBox="0 0 20 20" id="watch">
    <path d="M10 0C4.48578 0 0 4.48578 0 10C0 15.5142 4.48578 20 10 20C15.5142 20 20 15.5142 20 10C20 4.48578 15.5142 0 10 0ZM14.7559 15.1724C14.5934 15.3349 14.38 15.4167 14.1667 15.4167C13.9534 15.4167 13.7399 15.3349 13.5776 15.1724L9.41086 11.0059C9.25415 10.8501 9.16672 10.6383 9.16672 10.4167V5C9.16672 4.53918 9.53995 4.16672 10 4.16672C10.4601 4.16672 10.8333 4.53918 10.8333 5V10.0717L14.7559 13.9941C15.0816 14.3201 15.0816 14.8466 14.7559 15.1724Z"></path>
  </symbol>
  <symbol fill="none" xmlns="http://www.w3.org/2000/svg" viewBox="0 0 47 38" id="message">
    <path d="M37.7327 32.1882H11.7714L2.72383 37.7362C2.43735 37.9118 2.1135 38 1.78894 38C1.48816 38 1.1872 37.9242 0.91539 37.7722C0.350487 37.456 0.000701904 36.8593 0.000701904 36.2118V8.94118C0.000701904 4.01101 4.01171 0 8.94188 0H37.7327C42.6628 0 46.6738 4.01101 46.6738 8.94118V23.2471C46.6738 28.1772 42.6628 32.1882 37.7327 32.1882ZM43.0974 8.94118C43.0974 5.98308 40.6908 3.57647 37.7327 3.57647H8.94206C5.98396 3.57647 3.57735 5.98308 3.57735 8.94118V33.0176L10.3319 28.8755C10.6133 28.7031 10.9367 28.6118 11.2668 28.6118H37.7327C40.6908 28.6118 43.0974 26.2052 43.0974 23.2471V8.94118Z" fill="#9FB00A"></path>
    <path d="M34.8719 25.0356H11.6249C10.6374 25.0356 9.83663 24.235 9.83663 23.2474C9.83663 22.2598 10.6374 21.4592 11.6249 21.4592H34.8719C35.8594 21.4592 36.6602 22.2598 36.6602 23.2474C36.6602 24.235 35.8594 25.0356 34.8719 25.0356Z" fill="#9FB00A"></path>
    <path d="M34.8719 17.8826H11.6249C10.6374 17.8826 9.83663 17.082 9.83663 16.0943C9.83663 15.1067 10.6374 14.3061 11.6249 14.3061H34.8719C35.8594 14.3061 36.6602 15.1067 36.6602 16.0943C36.6602 17.082 35.8594 17.8826 34.8719 17.8826Z" fill="#9FB00A"></path>
    <path d="M32.1883 10.7295H11.6236C10.6362 10.7295 9.83539 9.92895 9.83539 8.94131C9.83539 7.95367 10.6362 7.15308 11.6236 7.15308H32.1883C33.1758 7.15308 33.9766 7.95367 33.9766 8.94131C33.9766 9.92895 33.1758 10.7295 32.1883 10.7295Z" fill="#9FB00A"></path>
  </symbol>
  <symbol xmlns="http://www.w3.org/2000/svg" viewBox="0 0 20 21" id="wp">
    <path d="M10.0025 0.5H9.9975C4.48375 0.5 0 4.985 0 10.5C0 12.6875 0.705 14.715 1.90375 16.3612L0.6575 20.0763L4.50125 18.8475C6.0825 19.895 7.96875 20.5 10.0025 20.5C15.5162 20.5 20 16.0138 20 10.5C20 4.98625 15.5162 0.5 10.0025 0.5ZM15.8212 14.6213C15.58 15.3025 14.6225 15.8675 13.8587 16.0325C13.3363 16.1437 12.6537 16.2325 10.3562 15.28C7.4175 14.0625 5.525 11.0763 5.3775 10.8825C5.23625 10.6887 4.19 9.30125 4.19 7.86625C4.19 6.43125 4.91875 5.7325 5.2125 5.4325C5.45375 5.18625 5.8525 5.07375 6.235 5.07375C6.35875 5.07375 6.47 5.08 6.57 5.085C6.86375 5.0975 7.01125 5.115 7.205 5.57875C7.44625 6.16 8.03375 7.595 8.10375 7.7425C8.175 7.89 8.24625 8.09 8.14625 8.28375C8.0525 8.48375 7.97 8.5725 7.8225 8.7425C7.675 8.9125 7.535 9.0425 7.3875 9.225C7.2525 9.38375 7.1 9.55375 7.27 9.8475C7.44 10.135 8.0275 11.0937 8.8925 11.8637C10.0087 12.8575 10.9137 13.175 11.2375 13.31C11.4787 13.41 11.7662 13.3863 11.9425 13.1988C12.1663 12.9575 12.4425 12.5575 12.7238 12.1638C12.9237 11.8813 13.1763 11.8462 13.4412 11.9462C13.7113 12.04 15.14 12.7462 15.4338 12.8925C15.7275 13.04 15.9212 13.11 15.9925 13.2338C16.0625 13.3575 16.0625 13.9388 15.8212 14.6213Z"></path>
  </symbol>
</svg>