<svg width="271" height="183" viewBox="0 0 271 183" fill="none" xmlns="http://www.w3.org/2000/svg">
<g clip-path="url(#clip0_1_2105)">
<path fill-rule="evenodd" clip-rule="evenodd" d="M182.428 54.587L203.826 33.6946L183.68 33.6274L172.325 44.4431L131.457 3.46436L52.0945 83.0303H71.4696L131.444 22.8923L191.425 83.0303H210.8L182.428 54.587ZM14.6305 102.888H64.0465L131.424 35.2934L198.835 102.888H248.284L260.149 114.859H191.398L156.742 80.1148L120.088 117.103H100.713L147.181 70.5217L131.424 54.7214L71.4897 114.819V114.866H2.76562L14.6305 102.888ZM140.756 114.369H172.425L156.661 98.5619L140.756 114.369Z" fill="#B3B3B3"/>
<path fill-rule="evenodd" clip-rule="evenodd" d="M11.0908 178.205C10.4597 178.765 9.73939 179.214 8.95974 179.535C8.25819 179.797 7.51499 179.928 6.76644 179.923C5.69878 179.989 4.64509 179.653 3.81207 178.981C3.4735 178.679 3.20465 178.307 3.02422 177.891C2.8438 177.474 2.75613 177.023 2.76731 176.57C2.74964 176.024 2.87108 175.483 3.12018 174.997C3.36891 174.541 3.72229 174.152 4.15109 173.86C4.5976 173.572 5.08848 173.359 5.60407 173.23C6.18778 173.094 6.77932 172.994 7.37531 172.932C8.57868 172.821 9.76782 172.589 10.9247 172.239C10.9247 171.969 10.9247 171.795 10.9247 171.726C10.9565 171.417 10.9223 171.104 10.8245 170.809C10.7267 170.514 10.5675 170.243 10.3574 170.015C9.7095 169.516 8.90321 169.27 8.08796 169.322C7.36108 169.268 6.63545 169.442 6.01228 169.821C5.49292 170.272 5.14374 170.889 5.02288 171.567L3.12018 171.297C3.25499 170.566 3.55563 169.876 3.99888 169.28C4.46088 168.727 5.0703 168.316 5.75628 168.095C6.61593 167.804 7.51948 167.663 8.42698 167.68C9.2555 167.653 10.0822 167.773 10.8694 168.033C11.4015 168.203 11.879 168.511 12.2531 168.927C12.5729 169.329 12.787 169.806 12.8758 170.313C12.9557 170.919 12.9881 171.531 12.9727 172.142V174.782C12.9428 175.95 12.9844 177.118 13.0972 178.281C13.18 178.778 13.3436 179.258 13.5816 179.702H11.5059C11.2957 179.237 11.1648 178.741 11.1184 178.233L11.0908 178.205ZM10.9385 173.791C9.8833 174.161 8.79033 174.412 7.67974 174.539C7.08642 174.596 6.50281 174.729 5.94309 174.934C5.6244 175.063 5.35193 175.285 5.16126 175.572C4.9307 175.923 4.83582 176.346 4.89442 176.762C4.95301 177.177 5.16105 177.558 5.47953 177.831C5.98475 178.214 6.61152 178.401 7.24385 178.357C7.96733 178.375 8.68288 178.203 9.31952 177.858C9.8915 177.545 10.3512 177.061 10.6341 176.473C10.8794 175.842 10.9879 175.167 10.9524 174.491V173.798L10.9385 173.791ZM16.0032 167.929H22.7561V169.578H17.9889V179.674H16.0032V167.894V167.929ZM31.7437 175.87L33.8194 176.14C33.5525 177.24 32.9207 178.218 32.0274 178.912C31.0514 179.604 29.8736 179.953 28.6786 179.903C27.9217 179.95 27.1633 179.835 26.4544 179.565C25.7455 179.295 25.1026 178.876 24.5688 178.337C23.5196 177.115 22.9883 175.531 23.0882 173.923C22.9824 172.256 23.5283 170.613 24.6103 169.343C25.1112 168.801 25.723 168.375 26.4037 168.093C27.0844 167.811 27.8179 167.679 28.5541 167.707C29.2691 167.684 29.9807 167.815 30.6408 168.091C31.301 168.367 31.8941 168.782 32.3803 169.308C33.4375 170.561 33.9704 172.175 33.8678 173.812C33.8678 173.923 33.8678 174.103 33.8678 174.338H25.1223C25.1199 175.424 25.5079 176.475 26.2155 177.297C26.528 177.63 26.9069 177.894 27.3277 178.07C27.7485 178.247 28.2017 178.333 28.6579 178.323C29.3257 178.341 29.9806 178.137 30.5191 177.741C31.1029 177.264 31.5297 176.621 31.7437 175.898V175.87ZM25.2399 172.682H31.7645C31.7453 171.882 31.4848 171.107 31.0172 170.458C30.7248 170.089 30.3507 169.793 29.9244 169.593C29.4982 169.394 29.0314 169.296 28.561 169.308C28.1364 169.298 27.714 169.373 27.3193 169.531C26.9246 169.688 26.5656 169.923 26.2639 170.223C25.6335 170.888 25.2755 171.766 25.2607 172.682H25.2399ZM36.3102 167.929H38.3029V172.814H43.838V167.929H45.8237V179.709H43.8172V174.505H38.2821V179.709H36.331V167.929H36.3102ZM47.7472 167.929H57.2399V169.578H53.4899V179.674H51.4972V169.578H47.7472V167.929ZM66.5459 175.371L68.4832 175.648C68.3345 176.853 67.7543 177.964 66.8503 178.773C65.9496 179.537 64.7992 179.942 63.6192 179.91C62.9007 179.94 62.1841 179.815 61.5179 179.544C60.8518 179.272 60.2517 178.861 59.7584 178.337C58.7124 177.079 58.1897 175.466 58.2985 173.833C58.2726 172.692 58.4871 171.559 58.9281 170.507C59.3071 169.602 59.98 168.853 60.8378 168.379C61.6857 167.915 62.6387 167.676 63.6053 167.686C64.741 167.623 65.8628 167.961 66.7742 168.643C67.6169 169.341 68.1694 170.33 68.324 171.414L66.4075 171.705C66.275 171.009 65.9176 170.376 65.3904 169.904C64.9171 169.504 64.314 169.292 63.6953 169.308C63.2318 169.292 62.7708 169.381 62.3459 169.567C61.9209 169.752 61.5428 170.031 61.2391 170.382C60.6163 171.075 60.305 172.232 60.305 173.791C60.305 175.35 60.6025 176.507 61.2045 177.221C61.491 177.567 61.8522 177.843 62.2609 178.03C62.6696 178.216 63.115 178.306 63.5638 178.295C64.2816 178.327 64.9837 178.079 65.5219 177.602C66.1029 177.008 66.4558 176.228 66.5182 175.399L66.5459 175.371ZM69.1404 167.929H78.6332V169.578H74.8831V179.674H72.8905V169.578H69.1404V167.929ZM80.529 167.929H85.1024C85.9491 167.895 86.796 167.991 87.614 168.213C88.1663 168.414 88.6476 168.773 88.9977 169.246C89.3979 169.762 89.6081 170.401 89.5928 171.054C89.604 171.563 89.4849 172.066 89.2468 172.516C88.996 172.955 88.633 173.318 88.1951 173.569C88.7561 173.754 89.2418 174.116 89.5789 174.602C89.945 175.125 90.1342 175.751 90.1186 176.39C90.1204 176.865 90.0142 177.335 89.808 177.764C89.6018 178.192 89.3011 178.568 88.9285 178.863C87.9955 179.464 86.8942 179.748 85.7874 179.674H80.5151V167.894L80.529 167.929ZM82.5147 172.883H84.5904C85.1724 172.908 85.7553 172.863 86.327 172.752C86.6529 172.653 86.9451 172.466 87.1711 172.211C87.3119 172.049 87.417 171.858 87.4797 171.653C87.5424 171.447 87.5613 171.23 87.5352 171.017C87.5092 170.803 87.4386 170.598 87.3283 170.413C87.2179 170.228 87.0701 170.069 86.8944 169.945C86.1856 169.651 85.4182 169.525 84.6527 169.578H82.4801V172.883H82.5147ZM82.5147 178.046H85.1301C85.9212 178.11 86.7159 177.974 87.441 177.651C87.6615 177.497 87.8382 177.288 87.9535 177.045C88.0688 176.802 88.1187 176.533 88.0983 176.265C88.0973 175.886 87.9708 175.518 87.7385 175.218C87.5062 174.909 87.1692 174.695 86.7906 174.616C86.1716 174.508 85.5434 174.464 84.9156 174.484H82.5147V178.08V178.046ZM91.5093 173.798C91.5093 171.629 92.1112 170.029 93.322 168.982C94.3485 168.107 95.6621 167.643 97.0098 167.68C97.7424 167.654 98.4723 167.781 99.1527 168.055C99.833 168.328 100.449 168.741 100.961 169.266C101.491 169.857 101.899 170.546 102.161 171.296C102.424 172.045 102.535 172.839 102.49 173.632C102.546 174.857 102.308 176.078 101.798 177.193C101.356 178.046 100.669 178.745 99.8258 179.203C98.9571 179.672 97.9829 179.911 96.996 179.896C96.2594 179.926 95.5246 179.801 94.8393 179.529C94.154 179.257 93.5334 178.843 93.0176 178.316C92.0005 177.263 91.4955 175.752 91.4955 173.77L91.5093 173.798ZM93.5435 173.798C93.4524 175.003 93.8016 176.199 94.5259 177.166C94.8312 177.525 95.2123 177.812 95.6419 178.007C96.0714 178.201 96.5386 178.297 97.0098 178.288C97.4788 178.297 97.9437 178.201 98.3702 178.005C98.7966 177.809 99.1735 177.52 99.473 177.159C100.203 176.174 100.552 174.958 100.455 173.736C100.543 172.554 100.191 171.381 99.466 170.444C99.1654 170.086 98.789 169.8 98.3642 169.606C97.9394 169.412 97.4767 169.315 97.0098 169.322C96.5393 169.313 96.0728 169.409 95.6434 169.601C95.214 169.794 94.8325 170.08 94.5259 170.437C93.8026 171.401 93.4535 172.596 93.5435 173.798ZM111.104 167.922H113.131V172.807H118.666V167.922H120.652V179.702H118.666V174.498H113.131V179.702H111.124V167.922H111.104ZM131.577 175.863L133.652 176.133C133.385 177.234 132.754 178.211 131.86 178.905C130.884 179.596 129.706 179.944 128.512 179.896C127.76 179.934 127.009 179.812 126.308 179.538C125.607 179.265 124.971 178.846 124.443 178.309C123.38 177.083 122.84 175.488 122.942 173.867C122.837 172.202 123.38 170.56 124.457 169.287C124.959 168.747 125.571 168.322 126.251 168.04C126.932 167.757 127.665 167.625 128.401 167.652C129.117 167.628 129.83 167.758 130.491 168.034C131.153 168.31 131.747 168.726 132.234 169.252C133.291 170.505 133.824 172.119 133.722 173.756C133.722 173.867 133.722 174.047 133.722 174.283H124.976C124.974 175.369 125.362 176.419 126.069 177.242C126.382 177.575 126.761 177.838 127.181 178.015C127.602 178.192 128.055 178.278 128.512 178.267C129.179 178.286 129.834 178.081 130.373 177.685C130.953 177.204 131.378 176.563 131.597 175.842L131.577 175.863ZM125.066 172.675H131.597C131.575 171.876 131.315 171.101 130.85 170.451C130.557 170.083 130.183 169.787 129.757 169.588C129.331 169.388 128.864 169.29 128.394 169.301C127.969 169.291 127.547 169.366 127.152 169.524C126.758 169.681 126.399 169.916 126.097 170.216C125.459 170.878 125.092 171.756 125.066 172.675ZM137.202 167.922H145.38V178.08H146.646V183.035H145.02V179.709H135.804V183.035H134.178V178.08H135.216C136.6 176.177 137.269 172.805 137.223 167.964L137.202 167.922ZM138.855 169.571C138.726 173.396 138.145 176.232 137.112 178.08H143.415V169.578L138.855 169.571ZM148.833 167.922H153.406C154.25 167.889 155.095 167.984 155.911 168.206C156.462 168.409 156.942 168.768 157.294 169.239C157.693 169.756 157.9 170.394 157.882 171.047C157.894 171.556 157.775 172.059 157.536 172.509C157.286 172.946 156.926 173.309 156.492 173.562C157.051 173.75 157.536 174.112 157.876 174.595C158.242 175.118 158.431 175.744 158.415 176.383C158.417 176.858 158.311 177.328 158.105 177.757C157.898 178.185 157.598 178.561 157.225 178.856C156.295 179.457 155.195 179.741 154.091 179.667H148.819V167.887L148.833 167.922ZM150.818 172.876H152.928C153.508 172.901 154.089 172.857 154.658 172.745C154.987 172.648 155.282 172.461 155.509 172.204C155.752 171.941 155.884 171.593 155.876 171.234C155.898 170.979 155.848 170.723 155.734 170.494C155.619 170.266 155.443 170.073 155.226 169.938C154.519 169.644 153.754 169.519 152.991 169.571H150.839V172.876H150.818ZM150.818 178.039H153.427C154.218 178.104 155.013 177.968 155.738 177.644C155.959 177.491 156.137 177.282 156.252 177.039C156.367 176.796 156.417 176.526 156.395 176.258C156.394 175.879 156.267 175.511 156.035 175.212C155.804 174.9 155.467 174.686 155.087 174.609C154.471 174.501 153.845 174.457 153.219 174.477H150.839V178.08L150.818 178.039ZM160.871 167.929H162.857V176.888L168.392 167.929H170.53V179.709H168.544V170.77L163.009 179.674H160.871V167.894V167.929ZM180.583 167.929V172.994C181.072 173.048 181.564 172.922 181.967 172.641C182.448 171.995 182.824 171.277 183.081 170.514C183.337 169.723 183.756 168.996 184.313 168.379C184.819 168.038 185.427 167.879 186.036 167.929H186.762V169.571H186.222C185.866 169.523 185.504 169.607 185.205 169.807C184.91 170.256 184.677 170.743 184.513 171.255C184.325 171.825 184.049 172.363 183.697 172.849C183.372 173.2 182.976 173.476 182.535 173.659C183.392 173.89 184.23 174.687 185.046 176.05L187.163 179.674H184.977L182.853 176.036C182.574 175.485 182.191 174.993 181.725 174.588C181.385 174.35 180.977 174.228 180.563 174.241V179.674H178.528V174.241C178.124 174.23 177.726 174.349 177.394 174.581C176.922 174.988 176.537 175.485 176.259 176.043L174.121 179.674H171.942L174.114 176.036C174.94 174.65 175.782 173.853 176.64 173.646C176.162 173.453 175.739 173.146 175.408 172.752C174.976 172.026 174.621 171.258 174.349 170.458C174.266 170.157 174.083 169.894 173.831 169.71C173.56 169.601 173.27 169.554 172.98 169.571H172.391V167.922H172.668C173.212 167.897 173.756 167.944 174.287 168.061C174.619 168.165 174.911 168.368 175.124 168.643C175.52 169.222 175.843 169.848 176.086 170.507C176.346 171.251 176.717 171.952 177.186 172.585C177.575 172.87 178.056 173.001 178.535 172.953V167.887L180.583 167.929ZM188.609 167.929H190.595V176.888L196.13 167.929H198.234V179.709H196.248V170.77L190.713 179.674H188.575V167.894L188.609 167.929ZM201.299 167.929H204.357L207.456 177.325L210.916 167.929H213.753V179.709H211.725V170.216L208.266 179.674H206.495L203.229 169.765V179.674H201.285V167.894L201.299 167.929ZM216.015 173.798C216.015 171.629 216.624 170.029 217.828 168.982C218.856 168.109 220.168 167.645 221.516 167.68C222.248 167.653 222.978 167.781 223.659 168.054C224.339 168.327 224.955 168.74 225.466 169.266C225.999 169.855 226.409 170.545 226.673 171.294C226.937 172.044 227.049 172.838 227.002 173.632C227.055 174.857 226.818 176.077 226.31 177.193C225.864 178.045 225.176 178.744 224.332 179.203C223.463 179.673 222.489 179.912 221.502 179.896C220.765 179.926 220.03 179.801 219.345 179.529C218.66 179.257 218.039 178.843 217.523 178.316C216.506 177.263 216.001 175.752 216.001 173.77L216.015 173.798ZM218.049 173.798C217.958 175.003 218.307 176.199 219.032 177.166C219.337 177.525 219.718 177.812 220.148 178.007C220.577 178.201 221.045 178.297 221.516 178.288C221.985 178.296 222.451 178.199 222.879 178.004C223.306 177.808 223.684 177.52 223.986 177.159C224.713 176.173 225.062 174.958 224.968 173.736C225.051 172.554 224.699 171.384 223.979 170.444C223.677 170.086 223.299 169.8 222.873 169.606C222.447 169.412 221.984 169.315 221.516 169.322C221.037 169.309 220.561 169.405 220.124 169.602C219.687 169.799 219.299 170.091 218.99 170.458C218.267 171.422 217.918 172.616 218.008 173.819L218.049 173.798ZM236.979 175.371L238.924 175.648C238.778 176.858 238.198 177.974 237.291 178.787C236.39 179.551 235.24 179.956 234.06 179.923C233.341 179.954 232.625 179.829 231.958 179.558C231.292 179.286 230.692 178.874 230.199 178.35C229.153 177.093 228.63 175.48 228.739 173.847C228.714 172.707 228.926 171.574 229.362 170.52C229.745 169.617 230.42 168.868 231.278 168.393C232.126 167.928 233.079 167.689 234.046 167.7C235.164 167.652 236.264 167.992 237.159 168.663C238.004 169.362 238.558 170.35 238.716 171.435L236.8 171.726C236.672 171.042 236.328 170.417 235.817 169.945C235.344 169.546 234.741 169.334 234.122 169.349C233.661 169.336 233.202 169.425 232.78 169.611C232.357 169.796 231.981 170.074 231.68 170.423C231.057 171.116 230.739 172.274 230.739 173.833C230.739 175.392 231.043 176.549 231.645 177.263C231.931 177.609 232.292 177.886 232.701 178.073C233.11 178.259 233.555 178.349 234.004 178.337C234.722 178.369 235.424 178.12 235.962 177.644C236.541 177.049 236.891 176.268 236.952 175.44L236.979 175.371ZM239.581 167.929H249.074V169.578H245.282V179.674H243.296V169.578H239.546V167.929H239.581ZM250.97 167.929H252.955V176.888L258.49 167.929H260.621V179.709H258.636V170.77L253.101 179.674H250.963L250.97 167.929Z" fill="#B3B3B3"/>
<path fill-rule="evenodd" clip-rule="evenodd" d="M9.24271 145.152H14.4388L11.9134 138.431L9.24271 145.152ZM4.15039 151.527V150.578H5.33352C5.47997 150.583 5.62587 150.557 5.76176 150.503C5.89765 150.448 6.02048 150.365 6.12228 150.259C6.41078 149.921 6.63159 149.531 6.77266 149.109L13.3525 131.959H14.5011L21.6968 150.578H23.3919V151.527H14.1136V150.578H16.4453L14.764 146.095H8.93136L7.6652 149.372C7.62986 149.456 7.60881 149.545 7.60293 149.636C7.59465 149.776 7.59465 149.917 7.60293 150.058C7.6019 150.137 7.62271 150.214 7.66304 150.281C7.70336 150.349 7.76161 150.403 7.83125 150.439C8.02146 150.544 8.23746 150.592 8.45395 150.578H10.1698V151.527H4.15039ZM24.7549 151.527V150.578H26.7268V133.255H24.7549V132.347H34.303V133.227H31.6461V150.55H34.4137C35.7713 150.646 37.1123 150.206 38.1499 149.324C39.0448 148.488 39.7367 147.088 40.2256 145.125H41.1389L40.9244 151.527H24.7549ZM42.578 151.527V150.578H44.5568V133.255H42.578V132.347H52.1261V133.227H49.4762V150.55H52.2438C53.5955 150.629 54.9251 150.18 55.9523 149.296C56.8471 148.46 57.539 147.06 58.028 145.097H58.9413L58.7268 151.5L42.578 151.527ZM59.9653 151.527V150.578H62.3246V133.255H59.9653V132.347H69.6517V133.227H67.2716V150.55H69.631V151.5L59.9653 151.527ZM75.602 145.152H80.7981L78.2658 138.431L75.602 145.152ZM70.5097 151.527V150.578H71.6859C71.8324 150.584 71.9784 150.558 72.1144 150.503C72.2503 150.448 72.3731 150.365 72.4747 150.259C72.7632 149.921 72.984 149.531 73.125 149.109L79.7049 131.959H80.8535L88.0491 150.578H89.7512V151.527H80.466V150.578H82.7977L81.1164 146.095H75.2837L74.0176 149.372C73.9822 149.456 73.9612 149.545 73.9553 149.636C73.9474 149.776 73.9474 149.917 73.9553 150.058C73.9528 150.136 73.9723 150.213 74.0114 150.281C74.0506 150.348 74.1078 150.403 74.1767 150.439C74.3672 150.543 74.583 150.591 74.7994 150.578H76.5153V151.527H70.5097ZM90.6645 151.527V150.578H92.152C92.2947 150.593 92.4389 150.579 92.5758 150.536C92.7127 150.493 92.8393 150.423 92.9477 150.328C93.1303 150.035 93.2084 149.688 93.1691 149.345V134.239C93.1891 134.094 93.1779 133.947 93.1361 133.807C93.0943 133.667 93.023 133.538 92.927 133.428C92.6135 133.26 92.2567 133.19 91.903 133.227H90.7337V132.347H98.4828L106.55 143.392V134.655C106.6 134.251 106.504 133.844 106.28 133.504C105.944 133.275 105.536 133.177 105.132 133.227H103.88V132.347H110.01V133.227H108.889C108.712 133.208 108.534 133.225 108.364 133.276C108.194 133.327 108.036 133.412 107.899 133.525C107.678 133.858 107.581 134.257 107.623 134.655V151.978H106.834L94.3038 134.724V149.532C94.2955 149.675 94.3163 149.818 94.3651 149.952C94.4139 150.087 94.4896 150.21 94.5875 150.315C94.8112 150.508 95.1022 150.605 95.397 150.585H97.106V151.534L90.6645 151.527ZM128.615 145.769V151.527H127.667L126.366 150.46C125.783 150.977 125.1 151.368 124.36 151.61C123.526 151.878 122.654 152.009 121.779 151.998C120.536 152.013 119.305 151.753 118.174 151.236C117.009 150.673 115.971 149.878 115.123 148.901C114.238 147.949 113.535 146.843 113.047 145.637C112.581 144.458 112.346 143.199 112.355 141.93C112.343 140.673 112.578 139.425 113.047 138.258C113.542 137.058 114.244 135.955 115.123 135.001C115.983 134.032 117.03 133.247 118.202 132.694C119.344 132.181 120.583 131.921 121.834 131.931C122.611 131.924 123.384 132.041 124.124 132.278C124.864 132.515 125.564 132.864 126.2 133.31L127.238 132.313H128.207L128.324 137.627H127.293C126.858 136.234 126.088 134.968 125.051 133.941C124.138 133.178 122.975 132.778 121.786 132.818C120.305 132.818 119.309 133.303 118.776 134.274C118.243 135.244 117.987 137.683 117.987 141.584C117.987 143.663 117.987 145.173 118.056 146.192C118.071 146.935 118.154 147.675 118.306 148.402C118.451 149.209 118.865 149.942 119.482 150.481C120.157 150.946 120.968 151.171 121.786 151.118C123.146 151.117 124.451 150.579 125.418 149.622C126.506 148.598 127.234 147.249 127.494 145.776L128.615 145.769ZM131.237 151.527V150.578H133.569V133.255H131.555V132.347H147.517L147.579 137.392H146.604C146.203 136.154 145.526 135.024 144.625 134.086C143.779 133.463 142.74 133.158 141.691 133.227H138.384V141.106H138.654H139.062C139.493 141.138 139.925 141.08 140.332 140.937C140.739 140.794 141.113 140.568 141.429 140.274C142.058 139.517 142.426 138.576 142.48 137.593H143.456V145.769H142.48C142.484 144.735 142.141 143.729 141.505 142.914C141.16 142.601 140.755 142.363 140.315 142.214C139.874 142.065 139.408 142.009 138.945 142.048H138.384V150.543H141.595C142.947 150.624 144.277 150.174 145.303 149.289C146.198 148.453 146.89 147.053 147.379 145.09H148.299L148.091 151.493L131.237 151.527ZM159.556 151.527V150.578H161.881V133.255H159.556V132.347H169.042V133.2H166.745V141.078H173.166V133.227H170.869V132.347H180.327V133.2H178.002V150.522H180.327V151.472H170.869V150.522H173.166V142.201H166.745V150.578H169.042V151.527H159.556ZM188.401 141.951C188.401 144.418 188.443 146.109 188.526 147.037C188.554 147.75 188.701 148.452 188.961 149.116C189.214 149.755 189.675 150.29 190.269 150.633C191.002 150.94 191.789 151.097 192.584 151.097C193.378 151.097 194.165 150.94 194.898 150.633C195.496 150.293 195.96 149.757 196.213 149.116C196.479 148.41 196.633 147.666 196.669 146.912C196.752 145.935 196.801 144.286 196.801 141.965C196.801 139.644 196.752 138.022 196.669 137.038C196.632 136.285 196.477 135.541 196.213 134.835C195.958 134.197 195.494 133.664 194.898 133.324C194.165 133.018 193.378 132.86 192.584 132.86C191.789 132.86 191.002 133.018 190.269 133.324C189.676 133.667 189.216 134.199 188.961 134.835C188.703 135.499 188.555 136.201 188.526 136.914C188.443 137.849 188.401 139.533 188.401 141.979V141.951ZM182.686 141.951C182.683 140.682 182.937 139.426 183.433 138.258C183.951 137.048 184.688 135.943 185.606 135.001C186.528 134.039 187.625 133.26 188.837 132.708C190.024 132.214 191.298 131.959 192.584 131.959C193.869 131.959 195.143 132.214 196.33 132.708C197.545 133.26 198.644 134.038 199.568 135.001C200.493 135.943 201.236 137.047 201.761 138.258C202.261 139.425 202.517 140.681 202.516 141.951C202.522 143.239 202.265 144.515 201.761 145.7C201.241 146.914 200.497 148.019 199.568 148.956C198.662 149.918 197.572 150.688 196.365 151.222C195.168 151.73 193.88 151.984 192.58 151.971C191.289 151.985 190.01 151.73 188.823 151.222C187.614 150.683 186.521 149.914 185.606 148.956C184.683 148.018 183.946 146.913 183.433 145.7C182.938 144.512 182.684 143.238 182.686 141.951ZM207.054 146.337V133.227H204.813V132.347H214.388V133.227H211.884V146.24C211.884 147.862 212.202 149.012 212.825 149.788C213.207 150.183 213.672 150.489 214.187 150.682C214.701 150.875 215.252 150.95 215.8 150.904C216.465 150.912 217.127 150.808 217.758 150.599C218.323 150.41 218.842 150.103 219.28 149.698C219.757 149.264 220.11 148.712 220.304 148.097C220.555 147.017 220.657 145.907 220.609 144.799V134.745C220.662 134.313 220.575 133.875 220.36 133.497C220.2 133.317 219.799 133.227 219.169 133.227H218.222V132.347H224.269V133.227H223.328C222.861 133.175 222.39 133.282 221.992 133.532C221.734 133.891 221.62 134.334 221.674 134.772V144.82C221.705 145.859 221.635 146.898 221.467 147.924C221.353 148.514 221.117 149.073 220.775 149.566C220.18 150.392 219.358 151.025 218.408 151.389C217.202 151.822 215.926 152.027 214.644 151.991C212.161 151.991 210.272 151.506 208.978 150.55C208.337 150.064 207.826 149.427 207.49 148.696C207.153 147.965 207.001 147.162 207.048 146.358L207.054 146.337ZM226.344 151.749V146.122H227.465C227.824 147.539 228.577 148.825 229.638 149.83C230.626 150.672 231.89 151.119 233.187 151.084C234.312 151.125 235.415 150.767 236.301 150.072C236.694 149.772 237.011 149.384 237.226 148.939C237.441 148.493 237.549 148.003 237.539 147.508C237.578 147.029 237.477 146.549 237.247 146.126C237.017 145.704 236.669 145.358 236.245 145.132C235.248 144.61 234.177 144.246 233.07 144.051C232.481 143.919 232.039 143.808 231.727 143.732C230.211 143.436 228.81 142.716 227.687 141.653C226.814 140.635 226.365 139.32 226.434 137.981C226.401 137.177 226.533 136.375 226.821 135.625C227.109 134.874 227.547 134.19 228.109 133.615C228.689 133.055 229.378 132.619 230.132 132.333C230.886 132.047 231.69 131.918 232.495 131.952C233.199 131.946 233.9 132.051 234.571 132.264C235.218 132.474 235.827 132.785 236.377 133.186L237.415 132.347H238.335L238.452 137.419H237.484C237.219 136.121 236.565 134.933 235.609 134.017C234.712 133.224 233.546 132.805 232.35 132.846C231.399 132.806 230.462 133.084 229.686 133.636C229.363 133.861 229.099 134.162 228.917 134.512C228.735 134.862 228.64 135.251 228.641 135.646C228.641 136.851 229.921 137.724 232.481 138.313L233.27 138.486C235.657 139.041 237.339 139.838 238.3 140.856C239.333 142.061 239.855 143.623 239.753 145.208C239.784 146.099 239.636 146.987 239.319 147.82C239.002 148.653 238.521 149.414 237.906 150.058C237.307 150.686 236.583 151.182 235.781 151.514C234.979 151.846 234.117 152.006 233.249 151.985C232.403 151.998 231.56 151.888 230.745 151.659C230.018 151.44 229.336 151.093 228.731 150.633L227.382 151.749H226.344ZM241.926 151.527V150.578H244.251V133.255H242.258V132.347H258.171L258.234 137.392H257.258C256.855 136.153 256.176 135.023 255.272 134.086C254.427 133.46 253.387 133.156 252.339 133.227H249.038V141.106H249.301H249.716C250.147 141.137 250.579 141.079 250.986 140.936C251.393 140.793 251.766 140.568 252.083 140.274C252.709 139.515 253.077 138.576 253.134 137.593H254.103V145.769H253.134C253.135 144.735 252.792 143.731 252.159 142.914C251.814 142.602 251.409 142.364 250.969 142.215C250.528 142.066 250.062 142.009 249.599 142.048H249.038V150.543H252.242C253.594 150.626 254.925 150.176 255.95 149.289C257.014 148.107 257.732 146.654 258.026 145.09H258.939L258.739 151.493L241.926 151.527Z" fill="#B3B3B3"/>
<path d="M261.569 157.57H1.38281V160.016H261.569V157.57Z" fill="#B3B3B3"/>
</g>
<defs>
<clipPath id="clip0_1_2105">
<rect width="271" height="183" fill="white"/>
</clipPath>
</defs>
</svg>
